# xmcd
# 
# Track frame offsets:
#     150
#     22824
#     43590
#     72700
#     95635
#     120732
#     138687
#     163117
#     182429
#     203217
#     231375
#     254271
# 
# Disc length: 3640
# 
# Revision: 1
# Processed by: cddbd v1.5.2PL0 Copyright (c) Steve Scherf et al.
# Submitted via: fre:ac v1.0.17
# 
DISCID=ae0e360c
DTITLE=John Primer - All Original
DYEAR=2008
DGENRE=Blues
TTITLE0=Add A Little Touch
TTITLE1=Going Back To Mississippi
TTITLE2=I Called My Baby
TTITLE3=Everyday Brings By A Change
TTITLE4=Blues Eyed Woman
TTITLE5=Other Man
TTITLE6=The Woman That I'm Lovin'
TTITLE7=Bad Child
TTITLE8=Keep On Lovin' The Blues
TTITLE9=At Home Alone
TTITLE10=Say Yes, Don't Say No
TTITLE11=Love In My Heart For You
EXTD=
EXTT0=
EXTT1=
EXTT2=
EXTT3=
EXTT4=
EXTT5=
EXTT6=
EXTT7=
EXTT8=
EXTT9=
EXTT10=
EXTT11=
PLAYORDER=
